<?xml version="1.0" encoding="UTF-8" standalone="no"?>
<!-- Created with Inkscape (http://www.inkscape.org/) -->

<svg
   width="61.036121mm"
   height="70.904572mm"
   viewBox="0 0 61.036121 70.904572"
   version="1.1"
   id="svg5"
   xml:space="preserve"
   xmlns="http://www.w3.org/2000/svg"
   xmlns:svg="http://www.w3.org/2000/svg"><defs
     id="defs2"><clipPath
       clipPathUnits="userSpaceOnUse"
       id="clipPath1553"><ellipse
         style="display:none;fill:none;stroke:#000000;stroke-width:0.26;stroke-linecap:round;stroke-linejoin:round"
         id="ellipse1555"
         cx="132.25645"
         cy="185.75888"
         rx="3.7819769"
         ry="3.6529789"
         d="m 136.03843,185.75888 a 3.7819769,3.6529789 0 0 1 -3.78198,3.65298 3.7819769,3.6529789 0 0 1 -3.78197,-3.65298 3.7819769,3.6529789 0 0 1 3.78197,-3.65298 3.7819769,3.6529789 0 0 1 3.78198,3.65298 z" /><path
         id="lpe_path-effect1557"
         style="fill:none;stroke:#000000;stroke-width:0.26;stroke-linecap:round;stroke-linejoin:round"
         class="powerclip"
         d="m 117.41462,171.23726 h 29.57029 v 29.77944 h -29.57029 z m 18.62381,14.52162 a 3.7819769,3.6529789 0 0 0 -3.78198,-3.65298 3.7819769,3.6529789 0 0 0 -3.78197,3.65298 3.7819769,3.6529789 0 0 0 3.78197,3.65298 3.7819769,3.6529789 0 0 0 3.78198,-3.65298 z" /></clipPath></defs><g
     id="layer1"
     transform="translate(-84.160354,-139.81686)"><g
       id="g4849"><path
         style="fill:none;stroke:#000000;stroke-width:0.600001;stroke-linecap:round;stroke-linejoin:round"
         d="m 84.460356,157.53174 30.185824,-17.41489 30.25031,17.47939 -0.0645,35.41029 -30.25031,17.41489 -29.927824,-17.0924 z"
         id="path302" /><path
         style="fill:#870081;fill-opacity:1;stroke:none;stroke-width:0.600001;stroke-linecap:round;stroke-linejoin:round"
         d="m 88.018588,170.25174 c -0.0054,-0.13155 -0.01614,-0.39492 0.05638,-0.65571 0.07253,-0.26079 0.228397,-0.51878 1.671654,-1.56966 1.443258,-1.05088 4.173687,-2.89446 5.68684,-3.82164 1.513152,-0.92718 1.80877,-0.93794 2.082923,-0.86529 0.274153,0.0727 0.526776,0.22853 0.773991,0.45165 0.247215,0.22311 0.489084,0.51335 0.612585,1.1261 0.123501,0.61274 0.128868,1.54796 0.153049,1.98858 0.02418,0.44062 0.06717,0.38688 0.698899,0.43258 0.631729,0.0457 1.851819,0.19082 3.305779,0.58324 1.45396,0.39242 3.14166,1.03203 4.56872,1.78458 1.42705,0.75255 2.59339,1.61791 3.72481,2.69295 1.13142,1.07504 2.22789,2.35963 3.17384,3.87809 0.94595,1.51846 1.74143,3.27066 2.1814,4.25134 0.43998,0.98068 0.52456,1.19007 0.49574,1.34926 -0.0288,0.15919 -0.17084,0.26841 -0.65654,0.53736 -0.48569,0.26894 -1.315,0.69755 -1.54657,1.16429 -0.23158,0.46673 0.13451,0.97119 -0.13468,0.91172 -0.2692,-0.0595 -1.17371,-0.68274 -1.77432,-0.94133 -0.6006,-0.25858 -0.89704,-0.15217 -1.26183,-0.21288 -0.36479,-0.0607 -0.79806,-0.28873 -1.00346,-0.60415 -0.2054,-0.31542 -0.1826,-0.71828 -0.36873,-1.20854 -0.18613,-0.49027 -0.58139,-1.06796 -1.20849,-1.86232 -0.6271,-0.79436 -1.48604,-1.80533 -2.5008,-2.68333 -1.01476,-0.87801 -2.18535,-1.62293 -3.43578,-2.16648 -1.25043,-0.54356 -2.58063,-0.88561 -3.321765,-1.07565 -0.741133,-0.19004 -0.893161,-0.22804 -0.976938,0.0571 -0.08378,0.28515 -0.09898,0.89324 -0.228222,1.39865 -0.129244,0.5054 -0.372481,0.90826 -0.714428,1.16285 -0.341947,0.25459 -0.782815,0.361 -1.105838,0.41424 -0.323023,0.0532 -0.528253,0.0532 -1.919307,-0.81324 -1.391055,-0.86647 -3.967855,-2.59954 -5.317169,-3.58386 -1.349314,-0.98432 -1.470934,-1.21996 -1.550743,-1.42664 -0.07981,-0.20667 -0.117708,-0.38437 -0.136691,-0.47338 -0.01898,-0.089 -0.01893,-0.0889 -0.02431,-0.22048 z"
         id="path304" /><path
         style="fill:#ff9f10;fill-opacity:1;stroke:none;stroke-width:0.600001;stroke-linecap:round;stroke-linejoin:round"
         d="m 141.28993,170.33095 c 0.005,-0.13155 0.0161,-0.39492 -0.0564,-0.65571 -0.0725,-0.26079 -0.2284,-0.51878 -1.67166,-1.56966 -1.44326,-1.05088 -4.17369,-2.89446 -5.68684,-3.82164 -1.51315,-0.92718 -1.80877,-0.93794 -2.08292,-0.86529 -0.27415,0.0727 -0.52678,0.22853 -0.77399,0.45165 -0.24722,0.22311 -0.48909,0.51335 -0.61259,1.1261 -0.1235,0.61274 -0.12886,1.54796 -0.15305,1.98858 -0.0242,0.44062 -0.0672,0.38688 -0.69889,0.43258 -0.63173,0.0457 -1.85182,0.19082 -3.30578,0.58324 -1.45396,0.39242 -3.14166,1.03203 -4.56872,1.78458 -1.42705,0.75255 -2.59339,1.61791 -3.42374,2.33812 -0.83035,0.72021 -1.32468,1.29512 -1.54499,1.63662 -0.22032,0.3415 -0.16699,0.44815 0.32789,1.43226 0.49488,0.98411 1.41623,2.8157 1.88961,3.67489 0.47337,0.85918 0.4924,0.73299 0.94773,0.16942 0.45532,-0.56356 1.34591,-1.56311 2.41477,-2.41444 1.06886,-0.85133 2.314,-1.55286 3.60251,-2.07502 1.2885,-0.52216 2.61781,-0.86398 3.37005,-1.00023 0.75224,-0.13625 0.92511,-0.067 1.01961,0.27197 0.0945,0.33899 0.1097,0.94708 0.23894,1.45249 0.12925,0.5054 0.37248,0.90826 0.71443,1.16285 0.34195,0.25459 0.78281,0.361 1.10584,0.41424 0.32302,0.0532 0.52825,0.0532 1.9193,-0.81324 1.39106,-0.86647 3.96786,-2.59954 5.31717,-3.58386 1.34932,-0.98432 1.47094,-1.21996 1.55075,-1.42664 0.0798,-0.20667 0.1177,-0.38437 0.13669,-0.47338 0.019,-0.089 0.0189,-0.0889 0.0243,-0.22048 z"
         id="path304-7" /><path
         style="fill:#870081;fill-opacity:1;stroke:none;stroke-width:0.657826;stroke-linecap:round;stroke-linejoin:round"
         id="path360"
         clip-path="url(#clipPath1553)"
         d="m 141.98491,186.12698 a 9.7851439,9.889719 0 0 1 -9.78514,9.88972 9.7851439,9.889719 0 0 1 -9.78515,-9.88972 9.7851439,9.889719 0 0 1 9.78515,-9.88972 9.7851439,9.889719 0 0 1 9.78514,9.88972 z"
         transform="translate(-17.513514,4.9256757)" /><path
         style="fill:#d02b40;fill-opacity:1;stroke:none;stroke-width:0.600001;stroke-linecap:round;stroke-linejoin:round"
         d="m 108.48648,157.4772 c 0.0304,-0.0304 0.0912,-0.0912 0.95777,-1.39104 0.86655,-1.29982 2.53882,-3.83863 3.49289,-5.15752 0.95406,-1.3189 1.18969,-1.41771 1.41778,-1.47089 0.2281,-0.0532 0.44855,-0.0608 0.67282,-0.0341 0.22427,0.0267 0.45231,0.0875 0.68033,0.22438 0.22802,0.13691 0.45606,0.34974 1.39481,1.63822 0.93875,1.28848 2.58821,3.65245 3.46991,5.0017 0.88171,1.34925 0.99573,1.6837 1.01845,1.9801 0.0227,0.29639 -0.0457,0.55482 -0.15969,0.7942 -0.11402,0.23937 -0.27365,0.45981 -0.45984,0.6498 -0.18619,0.18999 -0.39903,0.34962 -0.5852,0.44843 -0.18616,0.0988 -0.34578,0.13682 -0.75241,0.14065 -0.40664,0.004 -1.06034,-0.0266 -1.43292,-0.004 -0.37259,0.0228 -0.46382,0.0988 -0.48283,1.55844 -0.019,1.45964 0.0342,4.30247 0.0494,5.73522 0.0152,1.43274 -0.008,1.45554 -0.019,1.45946 -0.0114,0.004 -0.0114,-0.0113 -0.51306,0.43706 -0.50169,0.44834 -1.50505,1.36048 -2.01797,1.80909 -0.51292,0.4486 -0.53584,0.43332 -0.9957,0.0343 -0.45987,-0.39903 -1.35681,-1.18196 -1.81671,-1.58482 -0.45989,-0.40287 -0.48269,-0.42567 -0.49801,-1.92316 -0.0153,-1.49749 -0.0229,-4.46956 -0.0267,-5.98605 -0.004,-1.5165 -0.004,-1.57725 -0.0759,-1.6002 -0.0721,-0.0229 -0.21652,-0.008 -0.6536,0.007 -0.43707,0.0152 -1.16678,0.0304 -1.64567,-0.0797 -0.47889,-0.11009 -0.70692,-0.34572 -0.88938,-0.56615 -0.18246,-0.22043 -0.31928,-0.42566 -0.40677,-0.6195 -0.0875,-0.19384 -0.12549,-0.37625 -0.13314,-0.54733 -0.008,-0.17108 0.0151,-0.33071 0.0836,-0.48283 0.0684,-0.15211 0.18243,-0.29654 0.23946,-0.36877 0.057,-0.0722 0.057,-0.0722 0.0874,-0.10264 z"
         id="path2029" /></g></g></svg>
